# xmcd
#
# Track frame offsets:
#	150
#	16988
#	31538
#	47755
#	62940
#	79613
#	92663
#	107225
#	123363
#	137668
#	158113
#	174938
#	182983
#	208170
#
# Disc length: 3037 seconds
#
# Revision: 1
# Processed by: cddbd v1.5.2PL0 Copyright (c) Steve Scherf et al.
# Submitted via: audiograbber 1.83.01
#
DISCID=b40bdb0e
DTITLE=Bill Booth and the Convertibles - HARD TIMES ON EASY STREET
DYEAR=1986
DGENRE=Country/Rock
TTITLE0=Hard Times On Easy Street
TTITLE1=Let's Have A Party
TTITLE2=Juliana Back Again
TTITLE3=Hey Mister
TTITLE4=Only One Of You
TTITLE5=Lookin' Like A Monkey
TTITLE6=Never Find Somone
TTITLE7=Runin' And Howlin'
TTITLE8=We Can Be Alone
TTITLE9=Cajun Mama
TTITLE10=Blind Fiddler
TTITLE11=Mamou Two-step
TTITLE12=The Star Of Country Down/Swallow Tail Jig
TTITLE13=Home To Heaven
EXTD=
EXTT0=
EXTT1=
EXTT2=
EXTT3=
EXTT4=
EXTT5=
EXTT6=
EXTT7=
EXTT8=
EXTT9=
EXTT10=
EXTT11=
EXTT12=
EXTT13=
PLAYORDER=
